<?xml version="1.0" encoding="UTF-8" standalone="no"?>
<svg xmlns="http://www.w3.org/2000/svg" width="1312" height="760" viewBox="0 0 1312 760" shape-rendering="geometricPrecision">
<rect x="0" y="0" width="1312" height="760" fill="#ffffff"/>
<g id="child-edge-halos" stroke="#ffffff" stroke-width="4.2" fill="none" stroke-linecap="round" stroke-linejoin="round">
<line x1="232.00" y1="124.00" x2="232.00" y2="152.00"/>
<line x1="126.00" y1="152.00" x2="550.00" y2="152.00"/>
<line x1="126.00" y1="152.00" x2="126.00" y2="228.00"/>
<line x1="338.00" y1="152.00" x2="338.00" y2="228.00"/>
<line x1="550.00" y1="152.00" x2="550.00" y2="228.00"/>
<line x1="550.00" y1="304.00" x2="550.00" y2="332.00"/>
<line x1="338.00" y1="332.00" x2="762.00" y2="332.00"/>
<line x1="338.00" y1="332.00" x2="338.00" y2="408.00"/>
<line x1="550.00" y1="332.00" x2="550.00" y2="408.00"/>
<line x1="762.00" y1="332.00" x2="762.00" y2="408.00"/>
<line x1="762.00" y1="316.00" x2="774.00" y2="316.00"/>
<line x1="774.00" y1="316.00" x2="774.00" y2="347.00"/>
<line x1="774.00" y1="347.00" x2="974.00" y2="347.00"/>
<line x1="974.00" y1="347.00" x2="974.00" y2="408.00"/>
<line x1="232.00" y1="484.00" x2="232.00" y2="512.00"/>
<line x1="232.00" y1="512.00" x2="232.00" y2="588.00"/>
<line x1="1080.00" y1="496.00" x2="1080.00" y2="527.00"/>
<line x1="1080.00" y1="527.00" x2="1080.00" y2="588.00"/>
</g>
<g id="child-edges" stroke="#5d5d5d" stroke-width="1.4" stroke-dasharray="5 3" fill="none" stroke-linecap="round" stroke-linejoin="round" stroke-opacity="0.92">
<line x1="232.00" y1="124.00" x2="232.00" y2="152.00"/>
<line x1="126.00" y1="152.00" x2="550.00" y2="152.00"/>
<line x1="126.00" y1="152.00" x2="126.00" y2="228.00"/>
<line x1="338.00" y1="152.00" x2="338.00" y2="228.00"/>
<line x1="550.00" y1="152.00" x2="550.00" y2="228.00"/>
<line x1="550.00" y1="304.00" x2="550.00" y2="332.00"/>
<line x1="338.00" y1="332.00" x2="762.00" y2="332.00"/>
<line x1="338.00" y1="332.00" x2="338.00" y2="408.00"/>
<line x1="550.00" y1="332.00" x2="550.00" y2="408.00"/>
<line x1="762.00" y1="332.00" x2="762.00" y2="408.00"/>
<line x1="762.00" y1="316.00" x2="774.00" y2="316.00"/>
<line x1="774.00" y1="316.00" x2="774.00" y2="347.00"/>
<line x1="774.00" y1="347.00" x2="974.00" y2="347.00"/>
<line x1="974.00" y1="347.00" x2="974.00" y2="408.00"/>
<line x1="232.00" y1="484.00" x2="232.00" y2="512.00"/>
<line x1="232.00" y1="512.00" x2="232.00" y2="588.00"/>
<line x1="1080.00" y1="496.00" x2="1080.00" y2="527.00"/>
<line x1="1080.00" y1="527.00" x2="1080.00" y2="588.00"/>
</g>
<g id="spouse-edges" stroke="#1f4e79" stroke-width="2.0" fill="none" stroke-linecap="round" stroke-linejoin="round">
<line x1="169.68" y1="108.00" x2="169.68" y2="124.00"/>
<line x1="294.32" y1="108.00" x2="294.32" y2="124.00"/>
<line x1="169.68" y1="124.00" x2="294.32" y2="124.00"/>
<line x1="381.68" y1="288.00" x2="381.68" y2="304.00"/>
<line x1="718.32" y1="288.00" x2="718.32" y2="304.00"/>
<line x1="381.68" y1="304.00" x2="718.32" y2="304.00"/>
<line x1="593.68" y1="288.00" x2="593.68" y2="316.00"/>
<line x1="930.32" y1="288.00" x2="930.32" y2="316.00"/>
<line x1="593.68" y1="316.00" x2="930.32" y2="316.00"/>
<line x1="169.68" y1="468.00" x2="169.68" y2="484.00"/>
<line x1="294.32" y1="468.00" x2="294.32" y2="484.00"/>
<line x1="169.68" y1="484.00" x2="294.32" y2="484.00"/>
<line x1="1017.68" y1="468.00" x2="1017.68" y2="496.00"/>
<line x1="1142.32" y1="468.00" x2="1142.32" y2="496.00"/>
<line x1="1017.68" y1="496.00" x2="1142.32" y2="496.00"/>
</g>
<g id="nodes">
<rect x="260.00" y="48.00" width="156.00" height="60.00" rx="10.0" ry="10.0" fill="#f8f8f8" stroke="#333333"/>
<rect x="48.00" y="48.00" width="156.00" height="60.00" rx="10.0" ry="10.0" fill="#f8f8f8" stroke="#333333"/>
<rect x="48.00" y="228.00" width="156.00" height="60.00" rx="10.0" ry="10.0" fill="#f8f8f8" stroke="#333333"/>
<rect x="684.00" y="228.00" width="156.00" height="60.00" rx="10.0" ry="10.0" fill="#f8f8f8" stroke="#333333"/>
<rect x="260.00" y="228.00" width="156.00" height="60.00" rx="10.0" ry="10.0" fill="#f8f8f8" stroke="#333333"/>
<rect x="472.00" y="228.00" width="156.00" height="60.00" rx="10.0" ry="10.0" fill="#f8f8f8" stroke="#333333"/>
<rect x="896.00" y="228.00" width="156.00" height="60.00" rx="10.0" ry="10.0" fill="#f8f8f8" stroke="#333333"/>
<rect x="260.00" y="408.00" width="156.00" height="60.00" rx="10.0" ry="10.0" fill="#f8f8f8" stroke="#333333"/>
<rect x="684.00" y="408.00" width="156.00" height="60.00" rx="10.0" ry="10.0" fill="#f8f8f8" stroke="#333333"/>
<rect x="1108.00" y="408.00" width="156.00" height="60.00" rx="10.0" ry="10.0" fill="#f8f8f8" stroke="#333333"/>
<rect x="48.00" y="408.00" width="156.00" height="60.00" rx="10.0" ry="10.0" fill="#f8f8f8" stroke="#333333"/>
<rect x="472.00" y="408.00" width="156.00" height="60.00" rx="10.0" ry="10.0" fill="#f8f8f8" stroke="#333333"/>
<rect x="896.00" y="408.00" width="156.00" height="60.00" rx="10.0" ry="10.0" fill="#f8f8f8" stroke="#333333"/>
<rect x="154.00" y="588.00" width="156.00" height="60.00" rx="10.0" ry="10.0" fill="#f8f8f8" stroke="#333333"/>
<rect x="1002.00" y="588.00" width="156.00" height="60.00" rx="10.0" ry="10.0" fill="#f8f8f8" stroke="#333333"/>
</g>
<g id="labels" fill="#1f1f1f" font-family="Helvetica, Arial, sans-serif" font-size="13.0" text-anchor="middle">
<text x="338.00" y="74.00">磯野（波平・海平・なぎえの母）</text>
<text x="338.00" y="90.00">1875-?</text>
<text x="126.00" y="74.00">磯野（波平・海平・なぎえの父）</text>
<text x="126.00" y="90.00">1870-?</text>
<text x="126.00" y="254.00">磯野 海平</text>
<text x="126.00" y="270.00">1895-?</text>
<text x="762.00" y="254.00">磯野 フネ</text>
<text x="762.00" y="270.00">1901-1979</text>
<text x="338.00" y="254.00">磯野 波平</text>
<text x="338.00" y="270.00">1895-1982</text>
<text x="550.00" y="254.00">波野 なぎえ</text>
<text x="550.00" y="270.00">1904-?</text>
<text x="974.00" y="254.00">波野（ノリスケ父）</text>
<text x="974.00" y="270.00">1900-?</text>
<text x="338.00" y="434.00">フグ田 サザエ</text>
<text x="338.00" y="450.00">1922-?</text>
<text x="762.00" y="434.00">磯野 ワカメ</text>
<text x="762.00" y="450.00">1942-?</text>
<text x="1186.00" y="434.00">波野 タイ子</text>
<text x="1186.00" y="450.00">1924-?</text>
<text x="126.00" y="434.00">フグ田 マスオ</text>
<text x="126.00" y="450.00">1911-?</text>
<text x="550.00" y="434.00">磯野 カツオ</text>
<text x="550.00" y="450.00">1938-?</text>
<text x="974.00" y="434.00">波野 ノリスケ</text>
<text x="974.00" y="450.00">1918-?</text>
<text x="232.00" y="614.00">フグ田 タラオ</text>
<text x="232.00" y="630.00">1948-?</text>
<text x="1080.00" y="614.00">波野 イクラ</text>
<text x="1080.00" y="630.00">1950-?</text>
</g>
</svg>