<?xml version="1.0" encoding="UTF-8" standalone="no"?>
<svg xmlns="http://www.w3.org/2000/svg" width="1312" height="1300" viewBox="0 0 1312 1300" shape-rendering="geometricPrecision">
<rect x="0" y="0" width="1312" height="1300" fill="#ffffff"/>
<g id="child-edge-halos" stroke="#ffffff" stroke-width="4.2" fill="none" stroke-linecap="round" stroke-linejoin="round">
<line x1="656.00" y1="136.00" x2="656.00" y2="167.00"/>
<line x1="656.00" y1="167.00" x2="656.00" y2="228.00"/>
<line x1="232.00" y1="124.00" x2="232.00" y2="152.00"/>
<line x1="232.00" y1="152.00" x2="126.00" y2="152.00"/>
<line x1="126.00" y1="152.00" x2="126.00" y2="228.00"/>
<line x1="232.00" y1="304.00" x2="232.00" y2="332.00"/>
<line x1="232.00" y1="332.00" x2="338.00" y2="332.00"/>
<line x1="338.00" y1="332.00" x2="338.00" y2="408.00"/>
<line x1="232.00" y1="484.00" x2="232.00" y2="512.00"/>
<line x1="232.00" y1="512.00" x2="338.00" y2="512.00"/>
<line x1="338.00" y1="512.00" x2="338.00" y2="588.00"/>
<line x1="232.00" y1="664.00" x2="232.00" y2="692.00"/>
<line x1="232.00" y1="692.00" x2="338.00" y2="692.00"/>
<line x1="338.00" y1="692.00" x2="338.00" y2="768.00"/>
<line x1="444.00" y1="676.00" x2="444.00" y2="707.00"/>
<line x1="444.00" y1="707.00" x2="550.00" y2="707.00"/>
<line x1="550.00" y1="707.00" x2="550.00" y2="768.00"/>
<line x1="232.00" y1="844.00" x2="232.00" y2="872.00"/>
<line x1="232.00" y1="872.00" x2="126.00" y2="872.00"/>
<line x1="126.00" y1="872.00" x2="126.00" y2="948.00"/>
<line x1="232.00" y1="1024.00" x2="232.00" y2="1052.00"/>
<line x1="232.00" y1="1052.00" x2="232.00" y2="1128.00"/>
<line x1="656.00" y1="316.00" x2="656.00" y2="347.00"/>
<line x1="550.00" y1="347.00" x2="1186.00" y2="347.00"/>
<line x1="550.00" y1="347.00" x2="550.00" y2="408.00"/>
<line x1="762.00" y1="347.00" x2="762.00" y2="408.00"/>
<line x1="974.00" y1="347.00" x2="974.00" y2="408.00"/>
<line x1="1186.00" y1="347.00" x2="1186.00" y2="408.00"/>
</g>
<g id="child-edges" stroke="#5d5d5d" stroke-width="1.4" stroke-dasharray="5 3" fill="none" stroke-linecap="round" stroke-linejoin="round" stroke-opacity="0.92">
<line x1="656.00" y1="136.00" x2="656.00" y2="167.00"/>
<line x1="656.00" y1="167.00" x2="656.00" y2="228.00"/>
<line x1="232.00" y1="124.00" x2="232.00" y2="152.00"/>
<line x1="232.00" y1="152.00" x2="126.00" y2="152.00"/>
<line x1="126.00" y1="152.00" x2="126.00" y2="228.00"/>
<line x1="232.00" y1="304.00" x2="232.00" y2="332.00"/>
<line x1="232.00" y1="332.00" x2="338.00" y2="332.00"/>
<line x1="338.00" y1="332.00" x2="338.00" y2="408.00"/>
<line x1="232.00" y1="484.00" x2="232.00" y2="512.00"/>
<line x1="232.00" y1="512.00" x2="338.00" y2="512.00"/>
<line x1="338.00" y1="512.00" x2="338.00" y2="588.00"/>
<line x1="232.00" y1="664.00" x2="232.00" y2="692.00"/>
<line x1="232.00" y1="692.00" x2="338.00" y2="692.00"/>
<line x1="338.00" y1="692.00" x2="338.00" y2="768.00"/>
<line x1="444.00" y1="676.00" x2="444.00" y2="707.00"/>
<line x1="444.00" y1="707.00" x2="550.00" y2="707.00"/>
<line x1="550.00" y1="707.00" x2="550.00" y2="768.00"/>
<line x1="232.00" y1="844.00" x2="232.00" y2="872.00"/>
<line x1="232.00" y1="872.00" x2="126.00" y2="872.00"/>
<line x1="126.00" y1="872.00" x2="126.00" y2="948.00"/>
<line x1="232.00" y1="1024.00" x2="232.00" y2="1052.00"/>
<line x1="232.00" y1="1052.00" x2="232.00" y2="1128.00"/>
<line x1="656.00" y1="316.00" x2="656.00" y2="347.00"/>
<line x1="550.00" y1="347.00" x2="1186.00" y2="347.00"/>
<line x1="550.00" y1="347.00" x2="550.00" y2="408.00"/>
<line x1="762.00" y1="347.00" x2="762.00" y2="408.00"/>
<line x1="974.00" y1="347.00" x2="974.00" y2="408.00"/>
<line x1="1186.00" y1="347.00" x2="1186.00" y2="408.00"/>
</g>
<g id="spouse-edges" stroke="#1f4e79" stroke-width="2.0" fill="none" stroke-linecap="round" stroke-linejoin="round">
<line x1="593.68" y1="108.00" x2="593.68" y2="136.00"/>
<line x1="718.32" y1="108.00" x2="718.32" y2="136.00"/>
<line x1="593.68" y1="136.00" x2="718.32" y2="136.00"/>
<line x1="169.68" y1="108.00" x2="169.68" y2="124.00"/>
<line x1="294.32" y1="108.00" x2="294.32" y2="124.00"/>
<line x1="169.68" y1="124.00" x2="294.32" y2="124.00"/>
<line x1="169.68" y1="288.00" x2="169.68" y2="304.00"/>
<line x1="294.32" y1="288.00" x2="294.32" y2="304.00"/>
<line x1="169.68" y1="304.00" x2="294.32" y2="304.00"/>
<line x1="169.68" y1="468.00" x2="169.68" y2="484.00"/>
<line x1="294.32" y1="468.00" x2="294.32" y2="484.00"/>
<line x1="169.68" y1="484.00" x2="294.32" y2="484.00"/>
<line x1="169.68" y1="648.00" x2="169.68" y2="664.00"/>
<line x1="294.32" y1="648.00" x2="294.32" y2="664.00"/>
<line x1="169.68" y1="664.00" x2="294.32" y2="664.00"/>
<line x1="381.68" y1="648.00" x2="381.68" y2="676.00"/>
<line x1="506.32" y1="648.00" x2="506.32" y2="676.00"/>
<line x1="381.68" y1="676.00" x2="506.32" y2="676.00"/>
<line x1="169.68" y1="828.00" x2="169.68" y2="844.00"/>
<line x1="294.32" y1="828.00" x2="294.32" y2="844.00"/>
<line x1="169.68" y1="844.00" x2="294.32" y2="844.00"/>
<line x1="169.68" y1="1008.00" x2="169.68" y2="1024.00"/>
<line x1="294.32" y1="1008.00" x2="294.32" y2="1024.00"/>
<line x1="169.68" y1="1024.00" x2="294.32" y2="1024.00"/>
<line x1="656.00" y1="288.00" x2="656.00" y2="316.00"/>
</g>
<g id="nodes">
<rect x="684.00" y="48.00" width="156.00" height="60.00" rx="10.0" ry="10.0" fill="#f8f8f8" stroke="#333333"/>
<rect x="472.00" y="48.00" width="156.00" height="60.00" rx="10.0" ry="10.0" fill="#f8f8f8" stroke="#333333"/>
<rect x="260.00" y="48.00" width="156.00" height="60.00" rx="10.0" ry="10.0" fill="#f8f8f8" stroke="#333333"/>
<rect x="48.00" y="48.00" width="156.00" height="60.00" rx="10.0" ry="10.0" fill="#f8f8f8" stroke="#333333"/>
<rect x="578.00" y="228.00" width="156.00" height="60.00" rx="10.0" ry="10.0" fill="#f8f8f8" stroke="#333333"/>
<rect x="260.00" y="228.00" width="156.00" height="60.00" rx="10.0" ry="10.0" fill="#f8f8f8" stroke="#333333"/>
<rect x="48.00" y="228.00" width="156.00" height="60.00" rx="10.0" ry="10.0" fill="#f8f8f8" stroke="#333333"/>
<rect x="48.00" y="408.00" width="156.00" height="60.00" rx="10.0" ry="10.0" fill="#f8f8f8" stroke="#333333"/>
<rect x="260.00" y="408.00" width="156.00" height="60.00" rx="10.0" ry="10.0" fill="#f8f8f8" stroke="#333333"/>
<rect x="48.00" y="588.00" width="156.00" height="60.00" rx="10.0" ry="10.0" fill="#f8f8f8" stroke="#333333"/>
<rect x="260.00" y="588.00" width="156.00" height="60.00" rx="10.0" ry="10.0" fill="#f8f8f8" stroke="#333333"/>
<rect x="472.00" y="588.00" width="156.00" height="60.00" rx="10.0" ry="10.0" fill="#f8f8f8" stroke="#333333"/>
<rect x="472.00" y="408.00" width="156.00" height="60.00" rx="10.0" ry="10.0" fill="#f8f8f8" stroke="#333333"/>
<rect x="684.00" y="408.00" width="156.00" height="60.00" rx="10.0" ry="10.0" fill="#f8f8f8" stroke="#333333"/>
<rect x="896.00" y="408.00" width="156.00" height="60.00" rx="10.0" ry="10.0" fill="#f8f8f8" stroke="#333333"/>
<rect x="1108.00" y="408.00" width="156.00" height="60.00" rx="10.0" ry="10.0" fill="#f8f8f8" stroke="#333333"/>
<rect x="260.00" y="768.00" width="156.00" height="60.00" rx="10.0" ry="10.0" fill="#f8f8f8" stroke="#333333"/>
<rect x="48.00" y="768.00" width="156.00" height="60.00" rx="10.0" ry="10.0" fill="#f8f8f8" stroke="#333333"/>
<rect x="472.00" y="768.00" width="156.00" height="60.00" rx="10.0" ry="10.0" fill="#f8f8f8" stroke="#333333"/>
<rect x="260.00" y="948.00" width="156.00" height="60.00" rx="10.0" ry="10.0" fill="#f8f8f8" stroke="#333333"/>
<rect x="48.00" y="948.00" width="156.00" height="60.00" rx="10.0" ry="10.0" fill="#f8f8f8" stroke="#333333"/>
<rect x="154.00" y="1128.00" width="156.00" height="60.00" rx="10.0" ry="10.0" fill="#f8f8f8" stroke="#333333"/>
</g>
<g id="labels" fill="#1f1f1f" font-family="Helvetica, Arial, sans-serif" font-size="13.0" text-anchor="middle">
<text x="762.00" y="74.00">Brando Mother</text>
<text x="762.00" y="90.00">1840-?</text>
<text x="550.00" y="74.00">Dario Brando</text>
<text x="550.00" y="90.00">1835-1880</text>
<text x="338.00" y="74.00">Mary Joestar</text>
<text x="338.00" y="90.00">1841-1880</text>
<text x="126.00" y="74.00">George Joestar I</text>
<text x="126.00" y="90.00">1838-1889</text>
<text x="656.00" y="254.00">Dio Brando</text>
<text x="656.00" y="270.00">1868-1889</text>
<text x="338.00" y="254.00">Erina Pendleton</text>
<text x="338.00" y="270.00">1869-1950</text>
<text x="126.00" y="254.00">Jonathan Joestar</text>
<text x="126.00" y="270.00">1868-1889</text>
<text x="126.00" y="434.00">Lisa Lisa</text>
<text x="126.00" y="450.00">1889-1988</text>
<text x="338.00" y="434.00">George Joestar II</text>
<text x="338.00" y="450.00">1890-1943</text>
<text x="126.00" y="614.00">Suzi Q</text>
<text x="126.00" y="630.00">1920-?</text>
<text x="338.00" y="614.00">Joseph Joestar</text>
<text x="338.00" y="630.00">1920-2012</text>
<text x="550.00" y="614.00">Tomoko Higashikata</text>
<text x="550.00" y="630.00">1960-?</text>
<text x="550.00" y="434.00">Giorno Giovanna</text>
<text x="550.00" y="450.00">1985-?</text>
<text x="762.00" y="434.00">Ungalo</text>
<text x="762.00" y="450.00">1987-?</text>
<text x="974.00" y="434.00">Rikiel</text>
<text x="974.00" y="450.00">1987-?</text>
<text x="1186.00" y="434.00">Donatello Versus</text>
<text x="1186.00" y="450.00">1988-?</text>
<text x="338.00" y="794.00">Holy Kujo</text>
<text x="338.00" y="810.00">1945-?</text>
<text x="126.00" y="794.00">Sadao Kujo</text>
<text x="126.00" y="810.00">1942-?</text>
<text x="550.00" y="794.00">Josuke Higashikata</text>
<text x="550.00" y="810.00">1983-?</text>
<text x="338.00" y="974.00">Jotaro Wife</text>
<text x="338.00" y="990.00">1972-?</text>
<text x="126.00" y="974.00">Jotaro Kujo</text>
<text x="126.00" y="990.00">1970-?</text>
<text x="232.00" y="1154.00">Jolyne Cujoh</text>
<text x="232.00" y="1170.00">1992-?</text>
</g>
</svg>