<?xml version="1.0" encoding="UTF-8" standalone="no"?>
<svg xmlns="http://www.w3.org/2000/svg" width="2372" height="2380" viewBox="0 0 2372 2380" shape-rendering="geometricPrecision">
<rect x="0" y="0" width="2372" height="2380" fill="#ffffff"/>
<g id="child-edge-halos" stroke="#ffffff" stroke-width="4.2" fill="none" stroke-linecap="round" stroke-linejoin="round">
<line x1="550.00" y1="316.00" x2="550.00" y2="353.00"/>
<line x1="550.00" y1="353.00" x2="1186.00" y2="353.00"/>
<line x1="1186.00" y1="353.00" x2="1186.00" y2="408.00"/>
<line x1="338.00" y1="340.00" x2="338.00" y2="368.00"/>
<line x1="338.00" y1="368.00" x2="550.00" y2="368.00"/>
<line x1="338.00" y1="368.00" x2="338.00" y2="408.00"/>
<line x1="550.00" y1="368.00" x2="550.00" y2="408.00"/>
<line x1="232.00" y1="124.00" x2="232.00" y2="152.00"/>
<line x1="232.00" y1="152.00" x2="550.00" y2="152.00"/>
<line x1="338.00" y1="152.00" x2="338.00" y2="228.00"/>
<line x1="550.00" y1="152.00" x2="550.00" y2="228.00"/>
<line x1="1080.00" y1="484.00" x2="1080.00" y2="518.00"/>
<line x1="338.00" y1="518.00" x2="1080.00" y2="518.00"/>
<line x1="338.00" y1="518.00" x2="338.00" y2="588.00"/>
<line x1="550.00" y1="518.00" x2="550.00" y2="588.00"/>
<line x1="232.00" y1="1024.00" x2="232.00" y2="1052.00"/>
<line x1="232.00" y1="1052.00" x2="338.00" y2="1052.00"/>
<line x1="338.00" y1="1052.00" x2="338.00" y2="1128.00"/>
<line x1="868.00" y1="664.00" x2="868.00" y2="692.00"/>
<line x1="868.00" y1="692.00" x2="2246.00" y2="692.00"/>
<line x1="1822.00" y1="692.00" x2="1822.00" y2="768.00"/>
<line x1="2034.00" y1="692.00" x2="2034.00" y2="768.00"/>
<line x1="2246.00" y1="692.00" x2="2246.00" y2="768.00"/>
<line x1="420.84" y1="672.00" x2="420.84" y2="706.00"/>
<line x1="420.84" y1="706.00" x2="1610.00" y2="706.00"/>
<line x1="1398.00" y1="706.00" x2="1398.00" y2="768.00"/>
<line x1="1610.00" y1="706.00" x2="1610.00" y2="768.00"/>
<line x1="415.16" y1="668.00" x2="415.16" y2="686.00"/>
<line x1="415.16" y1="686.00" x2="403.16" y2="686.00"/>
<line x1="403.16" y1="686.00" x2="403.16" y2="717.00"/>
<line x1="338.00" y1="717.00" x2="550.00" y2="717.00"/>
<line x1="338.00" y1="717.00" x2="338.00" y2="768.00"/>
<line x1="550.00" y1="717.00" x2="550.00" y2="768.00"/>
<line x1="314.00" y1="696.00" x2="314.00" y2="742.00"/>
<line x1="314.00" y1="742.00" x2="1186.00" y2="742.00"/>
<line x1="762.00" y1="742.00" x2="762.00" y2="768.00"/>
<line x1="974.00" y1="742.00" x2="974.00" y2="768.00"/>
<line x1="1186.00" y1="742.00" x2="1186.00" y2="768.00"/>
<line x1="338.00" y1="844.00" x2="338.00" y2="872.00"/>
<line x1="338.00" y1="872.00" x2="126.00" y2="872.00"/>
<line x1="126.00" y1="872.00" x2="126.00" y2="948.00"/>
<line x1="229.50" y1="478.00" x2="229.50" y2="506.00"/>
<line x1="229.50" y1="506.00" x2="126.00" y2="506.00"/>
<line x1="126.00" y1="506.00" x2="126.00" y2="588.00"/>
<line x1="552.50" y1="504.00" x2="552.50" y2="528.00"/>
<line x1="552.50" y1="528.00" x2="564.50" y2="528.00"/>
<line x1="564.50" y1="528.00" x2="564.50" y2="541.00"/>
<line x1="564.50" y1="541.00" x2="1398.00" y2="541.00"/>
<line x1="762.00" y1="541.00" x2="762.00" y2="588.00"/>
<line x1="974.00" y1="541.00" x2="974.00" y2="588.00"/>
<line x1="1186.00" y1="541.00" x2="1186.00" y2="588.00"/>
<line x1="1398.00" y1="541.00" x2="1398.00" y2="588.00"/>
<line x1="656.00" y1="1564.00" x2="656.00" y2="1592.00"/>
<line x1="126.00" y1="1592.00" x2="974.00" y2="1592.00"/>
<line x1="126.00" y1="1592.00" x2="126.00" y2="1668.00"/>
<line x1="338.00" y1="1592.00" x2="338.00" y2="1668.00"/>
<line x1="550.00" y1="1592.00" x2="550.00" y2="1668.00"/>
<line x1="762.00" y1="1592.00" x2="762.00" y2="1668.00"/>
<line x1="974.00" y1="1592.00" x2="974.00" y2="1668.00"/>
<line x1="762.00" y1="1396.00" x2="762.00" y2="1433.00"/>
<line x1="762.00" y1="1433.00" x2="1822.00" y2="1433.00"/>
<line x1="1610.00" y1="1433.00" x2="1610.00" y2="1488.00"/>
<line x1="1822.00" y1="1433.00" x2="1822.00" y2="1488.00"/>
<line x1="232.00" y1="1204.00" x2="232.00" y2="1232.00"/>
<line x1="232.00" y1="1232.00" x2="974.00" y2="1232.00"/>
<line x1="338.00" y1="1232.00" x2="338.00" y2="1308.00"/>
<line x1="550.00" y1="1232.00" x2="550.00" y2="1308.00"/>
<line x1="762.00" y1="1232.00" x2="762.00" y2="1308.00"/>
<line x1="974.00" y1="1232.00" x2="974.00" y2="1308.00"/>
<line x1="550.00" y1="1420.00" x2="550.00" y2="1448.00"/>
<line x1="338.00" y1="1448.00" x2="1398.00" y2="1448.00"/>
<line x1="338.00" y1="1448.00" x2="338.00" y2="1488.00"/>
<line x1="550.00" y1="1448.00" x2="550.00" y2="1488.00"/>
<line x1="762.00" y1="1448.00" x2="762.00" y2="1488.00"/>
<line x1="974.00" y1="1448.00" x2="974.00" y2="1488.00"/>
<line x1="1186.00" y1="1448.00" x2="1186.00" y2="1488.00"/>
<line x1="1398.00" y1="1448.00" x2="1398.00" y2="1488.00"/>
<line x1="232.00" y1="1924.00" x2="232.00" y2="1952.00"/>
<line x1="232.00" y1="1952.00" x2="762.00" y2="1952.00"/>
<line x1="338.00" y1="1952.00" x2="338.00" y2="2028.00"/>
<line x1="550.00" y1="1952.00" x2="550.00" y2="2028.00"/>
<line x1="762.00" y1="1952.00" x2="762.00" y2="2028.00"/>
<line x1="444.00" y1="1744.00" x2="444.00" y2="1772.00"/>
<line x1="126.00" y1="1772.00" x2="444.00" y2="1772.00"/>
<line x1="126.00" y1="1772.00" x2="126.00" y2="1848.00"/>
<line x1="338.00" y1="1772.00" x2="338.00" y2="1848.00"/>
<line x1="658.50" y1="2124.00" x2="658.50" y2="2161.00"/>
<line x1="338.00" y1="2161.00" x2="658.50" y2="2161.00"/>
<line x1="338.00" y1="2161.00" x2="338.00" y2="2208.00"/>
<line x1="550.00" y1="2161.00" x2="550.00" y2="2208.00"/>
<line x1="229.50" y1="2098.00" x2="229.50" y2="2126.00"/>
<line x1="229.50" y1="2126.00" x2="126.00" y2="2126.00"/>
<line x1="126.00" y1="2126.00" x2="126.00" y2="2208.00"/>
</g>
<g id="child-edges" stroke="#5d5d5d" stroke-width="1.4" stroke-dasharray="5 3" fill="none" stroke-linecap="round" stroke-linejoin="round" stroke-opacity="0.92">
<line x1="550.00" y1="316.00" x2="550.00" y2="353.00"/>
<line x1="550.00" y1="353.00" x2="1186.00" y2="353.00"/>
<line x1="1186.00" y1="353.00" x2="1186.00" y2="408.00"/>
<line x1="338.00" y1="340.00" x2="338.00" y2="368.00"/>
<line x1="338.00" y1="368.00" x2="550.00" y2="368.00"/>
<line x1="338.00" y1="368.00" x2="338.00" y2="408.00"/>
<line x1="550.00" y1="368.00" x2="550.00" y2="408.00"/>
<line x1="232.00" y1="124.00" x2="232.00" y2="152.00"/>
<line x1="232.00" y1="152.00" x2="550.00" y2="152.00"/>
<line x1="338.00" y1="152.00" x2="338.00" y2="228.00"/>
<line x1="550.00" y1="152.00" x2="550.00" y2="228.00"/>
<line x1="1080.00" y1="484.00" x2="1080.00" y2="518.00"/>
<line x1="338.00" y1="518.00" x2="1080.00" y2="518.00"/>
<line x1="338.00" y1="518.00" x2="338.00" y2="588.00"/>
<line x1="550.00" y1="518.00" x2="550.00" y2="588.00"/>
<line x1="232.00" y1="1024.00" x2="232.00" y2="1052.00"/>
<line x1="232.00" y1="1052.00" x2="338.00" y2="1052.00"/>
<line x1="338.00" y1="1052.00" x2="338.00" y2="1128.00"/>
<line x1="868.00" y1="664.00" x2="868.00" y2="692.00"/>
<line x1="868.00" y1="692.00" x2="2246.00" y2="692.00"/>
<line x1="1822.00" y1="692.00" x2="1822.00" y2="768.00"/>
<line x1="2034.00" y1="692.00" x2="2034.00" y2="768.00"/>
<line x1="2246.00" y1="692.00" x2="2246.00" y2="768.00"/>
<line x1="420.84" y1="672.00" x2="420.84" y2="706.00"/>
<line x1="420.84" y1="706.00" x2="1610.00" y2="706.00"/>
<line x1="1398.00" y1="706.00" x2="1398.00" y2="768.00"/>
<line x1="1610.00" y1="706.00" x2="1610.00" y2="768.00"/>
<line x1="415.16" y1="668.00" x2="415.16" y2="686.00"/>
<line x1="415.16" y1="686.00" x2="403.16" y2="686.00"/>
<line x1="403.16" y1="686.00" x2="403.16" y2="717.00"/>
<line x1="338.00" y1="717.00" x2="550.00" y2="717.00"/>
<line x1="338.00" y1="717.00" x2="338.00" y2="768.00"/>
<line x1="550.00" y1="717.00" x2="550.00" y2="768.00"/>
<line x1="314.00" y1="696.00" x2="314.00" y2="742.00"/>
<line x1="314.00" y1="742.00" x2="1186.00" y2="742.00"/>
<line x1="762.00" y1="742.00" x2="762.00" y2="768.00"/>
<line x1="974.00" y1="742.00" x2="974.00" y2="768.00"/>
<line x1="1186.00" y1="742.00" x2="1186.00" y2="768.00"/>
<line x1="338.00" y1="844.00" x2="338.00" y2="872.00"/>
<line x1="338.00" y1="872.00" x2="126.00" y2="872.00"/>
<line x1="126.00" y1="872.00" x2="126.00" y2="948.00"/>
<line x1="229.50" y1="478.00" x2="229.50" y2="506.00"/>
<line x1="229.50" y1="506.00" x2="126.00" y2="506.00"/>
<line x1="126.00" y1="506.00" x2="126.00" y2="588.00"/>
<line x1="552.50" y1="504.00" x2="552.50" y2="528.00"/>
<line x1="552.50" y1="528.00" x2="564.50" y2="528.00"/>
<line x1="564.50" y1="528.00" x2="564.50" y2="541.00"/>
<line x1="564.50" y1="541.00" x2="1398.00" y2="541.00"/>
<line x1="762.00" y1="541.00" x2="762.00" y2="588.00"/>
<line x1="974.00" y1="541.00" x2="974.00" y2="588.00"/>
<line x1="1186.00" y1="541.00" x2="1186.00" y2="588.00"/>
<line x1="1398.00" y1="541.00" x2="1398.00" y2="588.00"/>
<line x1="656.00" y1="1564.00" x2="656.00" y2="1592.00"/>
<line x1="126.00" y1="1592.00" x2="974.00" y2="1592.00"/>
<line x1="126.00" y1="1592.00" x2="126.00" y2="1668.00"/>
<line x1="338.00" y1="1592.00" x2="338.00" y2="1668.00"/>
<line x1="550.00" y1="1592.00" x2="550.00" y2="1668.00"/>
<line x1="762.00" y1="1592.00" x2="762.00" y2="1668.00"/>
<line x1="974.00" y1="1592.00" x2="974.00" y2="1668.00"/>
<line x1="762.00" y1="1396.00" x2="762.00" y2="1433.00"/>
<line x1="762.00" y1="1433.00" x2="1822.00" y2="1433.00"/>
<line x1="1610.00" y1="1433.00" x2="1610.00" y2="1488.00"/>
<line x1="1822.00" y1="1433.00" x2="1822.00" y2="1488.00"/>
<line x1="232.00" y1="1204.00" x2="232.00" y2="1232.00"/>
<line x1="232.00" y1="1232.00" x2="974.00" y2="1232.00"/>
<line x1="338.00" y1="1232.00" x2="338.00" y2="1308.00"/>
<line x1="550.00" y1="1232.00" x2="550.00" y2="1308.00"/>
<line x1="762.00" y1="1232.00" x2="762.00" y2="1308.00"/>
<line x1="974.00" y1="1232.00" x2="974.00" y2="1308.00"/>
<line x1="550.00" y1="1420.00" x2="550.00" y2="1448.00"/>
<line x1="338.00" y1="1448.00" x2="1398.00" y2="1448.00"/>
<line x1="338.00" y1="1448.00" x2="338.00" y2="1488.00"/>
<line x1="550.00" y1="1448.00" x2="550.00" y2="1488.00"/>
<line x1="762.00" y1="1448.00" x2="762.00" y2="1488.00"/>
<line x1="974.00" y1="1448.00" x2="974.00" y2="1488.00"/>
<line x1="1186.00" y1="1448.00" x2="1186.00" y2="1488.00"/>
<line x1="1398.00" y1="1448.00" x2="1398.00" y2="1488.00"/>
<line x1="232.00" y1="1924.00" x2="232.00" y2="1952.00"/>
<line x1="232.00" y1="1952.00" x2="762.00" y2="1952.00"/>
<line x1="338.00" y1="1952.00" x2="338.00" y2="2028.00"/>
<line x1="550.00" y1="1952.00" x2="550.00" y2="2028.00"/>
<line x1="762.00" y1="1952.00" x2="762.00" y2="2028.00"/>
<line x1="444.00" y1="1744.00" x2="444.00" y2="1772.00"/>
<line x1="126.00" y1="1772.00" x2="444.00" y2="1772.00"/>
<line x1="126.00" y1="1772.00" x2="126.00" y2="1848.00"/>
<line x1="338.00" y1="1772.00" x2="338.00" y2="1848.00"/>
<line x1="658.50" y1="2124.00" x2="658.50" y2="2161.00"/>
<line x1="338.00" y1="2161.00" x2="658.50" y2="2161.00"/>
<line x1="338.00" y1="2161.00" x2="338.00" y2="2208.00"/>
<line x1="550.00" y1="2161.00" x2="550.00" y2="2208.00"/>
<line x1="229.50" y1="2098.00" x2="229.50" y2="2126.00"/>
<line x1="229.50" y1="2126.00" x2="126.00" y2="2126.00"/>
<line x1="126.00" y1="2126.00" x2="126.00" y2="2208.00"/>
</g>
<g id="spouse-edges" stroke="#1f4e79" stroke-width="2.0" fill="none" stroke-linecap="round" stroke-linejoin="round">
<line x1="381.68" y1="288.00" x2="381.68" y2="316.00"/>
<line x1="718.32" y1="288.00" x2="718.32" y2="316.00"/>
<line x1="381.68" y1="316.00" x2="718.32" y2="316.00"/>
<line x1="169.68" y1="288.00" x2="169.68" y2="340.00"/>
<line x1="506.32" y1="288.00" x2="506.32" y2="340.00"/>
<line x1="169.68" y1="340.00" x2="506.32" y2="340.00"/>
<line x1="169.68" y1="108.00" x2="169.68" y2="124.00"/>
<line x1="294.32" y1="108.00" x2="294.32" y2="124.00"/>
<line x1="169.68" y1="124.00" x2="294.32" y2="124.00"/>
<line x1="1017.68" y1="468.00" x2="1017.68" y2="484.00"/>
<line x1="1142.32" y1="468.00" x2="1142.32" y2="484.00"/>
<line x1="1017.68" y1="484.00" x2="1142.32" y2="484.00"/>
<line x1="169.68" y1="1008.00" x2="169.68" y2="1024.00"/>
<line x1="294.32" y1="1008.00" x2="294.32" y2="1024.00"/>
<line x1="169.68" y1="1024.00" x2="294.32" y2="1024.00"/>
<line x1="805.68" y1="648.00" x2="805.68" y2="664.00"/>
<line x1="930.32" y1="648.00" x2="930.32" y2="664.00"/>
<line x1="805.68" y1="664.00" x2="930.32" y2="664.00"/>
<line x1="381.68" y1="648.00" x2="381.68" y2="672.00"/>
<line x1="484.00" y1="468.00" x2="484.00" y2="476.00"/>
<line x1="484.00" y1="476.00" x2="460.00" y2="476.00"/>
<line x1="460.00" y1="476.00" x2="460.00" y2="672.00"/>
<line x1="381.68" y1="672.00" x2="460.00" y2="672.00"/>
<line x1="192.00" y1="648.00" x2="192.00" y2="668.00"/>
<line x1="554.32" y1="468.00" x2="554.32" y2="476.00"/>
<line x1="554.32" y1="476.00" x2="638.32" y2="476.00"/>
<line x1="638.32" y1="476.00" x2="638.32" y2="668.00"/>
<line x1="192.00" y1="668.00" x2="638.32" y2="668.00"/>
<line x1="121.68" y1="648.00" x2="121.68" y2="696.00"/>
<line x1="506.32" y1="648.00" x2="506.32" y2="696.00"/>
<line x1="121.68" y1="696.00" x2="506.32" y2="696.00"/>
<line x1="169.68" y1="828.00" x2="169.68" y2="844.00"/>
<line x1="506.32" y1="828.00" x2="506.32" y2="844.00"/>
<line x1="169.68" y1="844.00" x2="506.32" y2="844.00"/>
<line x1="169.68" y1="468.00" x2="169.68" y2="478.00"/>
<line x1="289.32" y1="468.00" x2="289.32" y2="478.00"/>
<line x1="169.68" y1="478.00" x2="289.32" y2="478.00"/>
<line x1="386.68" y1="468.00" x2="386.68" y2="504.00"/>
<line x1="718.32" y1="468.00" x2="718.32" y2="504.00"/>
<line x1="386.68" y1="504.00" x2="718.32" y2="504.00"/>
<line x1="169.68" y1="1548.00" x2="169.68" y2="1564.00"/>
<line x1="1142.32" y1="1548.00" x2="1142.32" y2="1564.00"/>
<line x1="169.68" y1="1564.00" x2="1142.32" y2="1564.00"/>
<line x1="381.68" y1="1368.00" x2="381.68" y2="1396.00"/>
<line x1="1142.32" y1="1368.00" x2="1142.32" y2="1396.00"/>
<line x1="381.68" y1="1396.00" x2="1142.32" y2="1396.00"/>
<line x1="169.68" y1="1188.00" x2="169.68" y2="1204.00"/>
<line x1="294.32" y1="1188.00" x2="294.32" y2="1204.00"/>
<line x1="169.68" y1="1204.00" x2="294.32" y2="1204.00"/>
<line x1="169.68" y1="1368.00" x2="169.68" y2="1420.00"/>
<line x1="930.32" y1="1368.00" x2="930.32" y2="1420.00"/>
<line x1="169.68" y1="1420.00" x2="930.32" y2="1420.00"/>
<line x1="169.68" y1="1908.00" x2="169.68" y2="1924.00"/>
<line x1="294.32" y1="1908.00" x2="294.32" y2="1924.00"/>
<line x1="169.68" y1="1924.00" x2="294.32" y2="1924.00"/>
<line x1="381.68" y1="1728.00" x2="381.68" y2="1744.00"/>
<line x1="506.32" y1="1728.00" x2="506.32" y2="1744.00"/>
<line x1="381.68" y1="1744.00" x2="506.32" y2="1744.00"/>
<line x1="386.68" y1="2088.00" x2="386.68" y2="2124.00"/>
<line x1="930.32" y1="2088.00" x2="930.32" y2="2124.00"/>
<line x1="386.68" y1="2124.00" x2="930.32" y2="2124.00"/>
<line x1="169.68" y1="2088.00" x2="169.68" y2="2098.00"/>
<line x1="289.32" y1="2088.00" x2="289.32" y2="2098.00"/>
<line x1="169.68" y1="2098.00" x2="289.32" y2="2098.00"/>
</g>
<g id="child-bridge-cutouts" fill="#ffffff">
<circle cx="460.00" cy="518.00" r="5.80"/>
<circle cx="638.32" cy="518.00" r="5.80"/>
<circle cx="552.50" cy="518.00" r="5.80"/>
<circle cx="338.00" cy="742.00" r="5.80"/>
<circle cx="550.00" cy="742.00" r="5.80"/>
<circle cx="638.32" cy="541.00" r="5.80"/>
<circle cx="506.32" cy="316.00" r="5.80"/>
<circle cx="415.16" cy="672.00" r="5.80"/>
<circle cx="381.68" cy="668.00" r="5.80"/>
<circle cx="460.00" cy="668.00" r="5.80"/>
<circle cx="506.32" cy="668.00" r="5.80"/>
<circle cx="420.84" cy="696.00" r="5.80"/>
<circle cx="403.16" cy="696.00" r="5.80"/>
<circle cx="460.00" cy="504.00" r="5.80"/>
<circle cx="638.32" cy="504.00" r="5.80"/>
<circle cx="930.32" cy="1396.00" r="5.80"/>
<circle cx="762.00" cy="1420.00" r="5.80"/>
</g>
<g id="spouse-bridges" stroke="#1f4e79" stroke-width="2.0" fill="none" stroke-linecap="round" stroke-linejoin="round">
<path d="M 502.32 316.00 A 4.00 4.00 0 0 1 506.32 312.00 A 4.00 4.00 0 0 1 510.32 316.00"/>
<path d="M 411.16 672.00 A 4.00 4.00 0 0 1 415.16 668.00 A 4.00 4.00 0 0 1 419.16 672.00"/>
<path d="M 377.68 668.00 A 4.00 4.00 0 0 1 381.68 664.00 A 4.00 4.00 0 0 1 385.68 668.00"/>
<path d="M 456.00 668.00 A 4.00 4.00 0 0 1 460.00 664.00 A 4.00 4.00 0 0 1 464.00 668.00"/>
<path d="M 502.32 668.00 A 4.00 4.00 0 0 1 506.32 664.00 A 4.00 4.00 0 0 1 510.32 668.00"/>
<path d="M 416.84 696.00 A 4.00 4.00 0 0 1 420.84 692.00 A 4.00 4.00 0 0 1 424.84 696.00"/>
<path d="M 399.16 696.00 A 4.00 4.00 0 0 1 403.16 692.00 A 4.00 4.00 0 0 1 407.16 696.00"/>
<path d="M 456.00 504.00 A 4.00 4.00 0 0 1 460.00 500.00 A 4.00 4.00 0 0 1 464.00 504.00"/>
<path d="M 634.32 504.00 A 4.00 4.00 0 0 1 638.32 500.00 A 4.00 4.00 0 0 1 642.32 504.00"/>
<path d="M 926.32 1396.00 A 4.00 4.00 0 0 1 930.32 1392.00 A 4.00 4.00 0 0 1 934.32 1396.00"/>
<path d="M 758.00 1420.00 A 4.00 4.00 0 0 1 762.00 1416.00 A 4.00 4.00 0 0 1 766.00 1420.00"/>
</g>
<g id="child-bridges" stroke="#5d5d5d" stroke-width="1.4" fill="none" stroke-linecap="round" stroke-linejoin="round">
<path d="M 456.00 518.00 A 4.00 4.00 0 0 1 460.00 514.00 A 4.00 4.00 0 0 1 464.00 518.00"/>
<path d="M 634.32 518.00 A 4.00 4.00 0 0 1 638.32 514.00 A 4.00 4.00 0 0 1 642.32 518.00"/>
<path d="M 548.50 518.00 A 4.00 4.00 0 0 1 552.50 514.00 A 4.00 4.00 0 0 1 556.50 518.00"/>
<path d="M 334.00 742.00 A 4.00 4.00 0 0 1 338.00 738.00 A 4.00 4.00 0 0 1 342.00 742.00"/>
<path d="M 546.00 742.00 A 4.00 4.00 0 0 1 550.00 738.00 A 4.00 4.00 0 0 1 554.00 742.00"/>
<path d="M 634.32 541.00 A 4.00 4.00 0 0 1 638.32 537.00 A 4.00 4.00 0 0 1 642.32 541.00"/>
</g>
<g id="nodes">
<rect x="684.00" y="228.00" width="156.00" height="60.00" rx="10.0" ry="10.0" fill="#f8f8f8" stroke="#333333"/>
<rect x="48.00" y="48.00" width="156.00" height="60.00" rx="10.0" ry="10.0" fill="#f8f8f8" stroke="#333333"/>
<rect x="260.00" y="48.00" width="156.00" height="60.00" rx="10.0" ry="10.0" fill="#f8f8f8" stroke="#333333"/>
<rect x="48.00" y="228.00" width="156.00" height="60.00" rx="10.0" ry="10.0" fill="#f8f8f8" stroke="#333333"/>
<rect x="896.00" y="408.00" width="156.00" height="60.00" rx="10.0" ry="10.0" fill="#f8f8f8" stroke="#333333"/>
<rect x="48.00" y="408.00" width="156.00" height="60.00" rx="10.0" ry="10.0" fill="#f8f8f8" stroke="#333333"/>
<rect x="684.00" y="408.00" width="156.00" height="60.00" rx="10.0" ry="10.0" fill="#f8f8f8" stroke="#333333"/>
<rect x="260.00" y="228.00" width="156.00" height="60.00" rx="10.0" ry="10.0" fill="#f8f8f8" stroke="#333333"/>
<rect x="472.00" y="228.00" width="156.00" height="60.00" rx="10.0" ry="10.0" fill="#f8f8f8" stroke="#333333"/>
<rect x="1108.00" y="408.00" width="156.00" height="60.00" rx="10.0" ry="10.0" fill="#f8f8f8" stroke="#333333"/>
<rect x="260.00" y="408.00" width="156.00" height="60.00" rx="10.0" ry="10.0" fill="#f8f8f8" stroke="#333333"/>
<rect x="472.00" y="408.00" width="156.00" height="60.00" rx="10.0" ry="10.0" fill="#f8f8f8" stroke="#333333"/>
<rect x="260.00" y="588.00" width="156.00" height="60.00" rx="10.0" ry="10.0" fill="#f8f8f8" stroke="#333333"/>
<rect x="472.00" y="588.00" width="156.00" height="60.00" rx="10.0" ry="10.0" fill="#f8f8f8" stroke="#333333"/>
<rect x="48.00" y="768.00" width="156.00" height="60.00" rx="10.0" ry="10.0" fill="#f8f8f8" stroke="#333333"/>
<rect x="1108.00" y="768.00" width="156.00" height="60.00" rx="10.0" ry="10.0" fill="#f8f8f8" stroke="#333333"/>
<rect x="260.00" y="768.00" width="156.00" height="60.00" rx="10.0" ry="10.0" fill="#f8f8f8" stroke="#333333"/>
<rect x="472.00" y="768.00" width="156.00" height="60.00" rx="10.0" ry="10.0" fill="#f8f8f8" stroke="#333333"/>
<rect x="48.00" y="588.00" width="156.00" height="60.00" rx="10.0" ry="10.0" fill="#f8f8f8" stroke="#333333"/>
<rect x="684.00" y="588.00" width="156.00" height="60.00" rx="10.0" ry="10.0" fill="#f8f8f8" stroke="#333333"/>
<rect x="896.00" y="588.00" width="156.00" height="60.00" rx="10.0" ry="10.0" fill="#f8f8f8" stroke="#333333"/>
<rect x="1108.00" y="588.00" width="156.00" height="60.00" rx="10.0" ry="10.0" fill="#f8f8f8" stroke="#333333"/>
<rect x="1320.00" y="588.00" width="156.00" height="60.00" rx="10.0" ry="10.0" fill="#f8f8f8" stroke="#333333"/>
<rect x="1320.00" y="768.00" width="156.00" height="60.00" rx="10.0" ry="10.0" fill="#f8f8f8" stroke="#333333"/>
<rect x="1532.00" y="768.00" width="156.00" height="60.00" rx="10.0" ry="10.0" fill="#f8f8f8" stroke="#333333"/>
<rect x="684.00" y="768.00" width="156.00" height="60.00" rx="10.0" ry="10.0" fill="#f8f8f8" stroke="#333333"/>
<rect x="896.00" y="768.00" width="156.00" height="60.00" rx="10.0" ry="10.0" fill="#f8f8f8" stroke="#333333"/>
<rect x="1744.00" y="768.00" width="156.00" height="60.00" rx="10.0" ry="10.0" fill="#f8f8f8" stroke="#333333"/>
<rect x="1956.00" y="768.00" width="156.00" height="60.00" rx="10.0" ry="10.0" fill="#f8f8f8" stroke="#333333"/>
<rect x="2168.00" y="768.00" width="156.00" height="60.00" rx="10.0" ry="10.0" fill="#f8f8f8" stroke="#333333"/>
<rect x="48.00" y="948.00" width="156.00" height="60.00" rx="10.0" ry="10.0" fill="#f8f8f8" stroke="#333333"/>
<rect x="260.00" y="948.00" width="156.00" height="60.00" rx="10.0" ry="10.0" fill="#f8f8f8" stroke="#333333"/>
<rect x="48.00" y="1488.00" width="156.00" height="60.00" rx="10.0" ry="10.0" fill="#f8f8f8" stroke="#333333"/>
<rect x="48.00" y="1308.00" width="156.00" height="60.00" rx="10.0" ry="10.0" fill="#f8f8f8" stroke="#333333"/>
<rect x="1108.00" y="1308.00" width="156.00" height="60.00" rx="10.0" ry="10.0" fill="#f8f8f8" stroke="#333333"/>
<rect x="48.00" y="1128.00" width="156.00" height="60.00" rx="10.0" ry="10.0" fill="#f8f8f8" stroke="#333333"/>
<rect x="260.00" y="1128.00" width="156.00" height="60.00" rx="10.0" ry="10.0" fill="#f8f8f8" stroke="#333333"/>
<rect x="260.00" y="1308.00" width="156.00" height="60.00" rx="10.0" ry="10.0" fill="#f8f8f8" stroke="#333333"/>
<rect x="472.00" y="1308.00" width="156.00" height="60.00" rx="10.0" ry="10.0" fill="#f8f8f8" stroke="#333333"/>
<rect x="684.00" y="1308.00" width="156.00" height="60.00" rx="10.0" ry="10.0" fill="#f8f8f8" stroke="#333333"/>
<rect x="896.00" y="1308.00" width="156.00" height="60.00" rx="10.0" ry="10.0" fill="#f8f8f8" stroke="#333333"/>
<rect x="260.00" y="1488.00" width="156.00" height="60.00" rx="10.0" ry="10.0" fill="#f8f8f8" stroke="#333333"/>
<rect x="472.00" y="1488.00" width="156.00" height="60.00" rx="10.0" ry="10.0" fill="#f8f8f8" stroke="#333333"/>
<rect x="684.00" y="1488.00" width="156.00" height="60.00" rx="10.0" ry="10.0" fill="#f8f8f8" stroke="#333333"/>
<rect x="1108.00" y="1488.00" width="156.00" height="60.00" rx="10.0" ry="10.0" fill="#f8f8f8" stroke="#333333"/>
<rect x="896.00" y="1488.00" width="156.00" height="60.00" rx="10.0" ry="10.0" fill="#f8f8f8" stroke="#333333"/>
<rect x="1320.00" y="1488.00" width="156.00" height="60.00" rx="10.0" ry="10.0" fill="#f8f8f8" stroke="#333333"/>
<rect x="1532.00" y="1488.00" width="156.00" height="60.00" rx="10.0" ry="10.0" fill="#f8f8f8" stroke="#333333"/>
<rect x="1744.00" y="1488.00" width="156.00" height="60.00" rx="10.0" ry="10.0" fill="#f8f8f8" stroke="#333333"/>
<rect x="48.00" y="1668.00" width="156.00" height="60.00" rx="10.0" ry="10.0" fill="#f8f8f8" stroke="#333333"/>
<rect x="260.00" y="1668.00" width="156.00" height="60.00" rx="10.0" ry="10.0" fill="#f8f8f8" stroke="#333333"/>
<rect x="472.00" y="1668.00" width="156.00" height="60.00" rx="10.0" ry="10.0" fill="#f8f8f8" stroke="#333333"/>
<rect x="684.00" y="1668.00" width="156.00" height="60.00" rx="10.0" ry="10.0" fill="#f8f8f8" stroke="#333333"/>
<rect x="896.00" y="1668.00" width="156.00" height="60.00" rx="10.0" ry="10.0" fill="#f8f8f8" stroke="#333333"/>
<rect x="896.00" y="2028.00" width="156.00" height="60.00" rx="10.0" ry="10.0" fill="#f8f8f8" stroke="#333333"/>
<rect x="48.00" y="2028.00" width="156.00" height="60.00" rx="10.0" ry="10.0" fill="#f8f8f8" stroke="#333333"/>
<rect x="48.00" y="1848.00" width="156.00" height="60.00" rx="10.0" ry="10.0" fill="#f8f8f8" stroke="#333333"/>
<rect x="260.00" y="1848.00" width="156.00" height="60.00" rx="10.0" ry="10.0" fill="#f8f8f8" stroke="#333333"/>
<rect x="260.00" y="2028.00" width="156.00" height="60.00" rx="10.0" ry="10.0" fill="#f8f8f8" stroke="#333333"/>
<rect x="472.00" y="2028.00" width="156.00" height="60.00" rx="10.0" ry="10.0" fill="#f8f8f8" stroke="#333333"/>
<rect x="684.00" y="2028.00" width="156.00" height="60.00" rx="10.0" ry="10.0" fill="#f8f8f8" stroke="#333333"/>
<rect x="260.00" y="2208.00" width="156.00" height="60.00" rx="10.0" ry="10.0" fill="#f8f8f8" stroke="#333333"/>
<rect x="472.00" y="2208.00" width="156.00" height="60.00" rx="10.0" ry="10.0" fill="#f8f8f8" stroke="#333333"/>
<rect x="48.00" y="2208.00" width="156.00" height="60.00" rx="10.0" ry="10.0" fill="#f8f8f8" stroke="#333333"/>
</g>
<g id="node-images">
</g>
<g id="labels" fill="#1f1f1f" font-family="Helvetica, Arial, sans-serif" font-size="13.0" text-anchor="middle">
<text x="762.00" y="262.00">Jocelyn Baratheon</text>
<text x="126.00" y="82.00">Alysanne Targaryen</text>
<text x="338.00" y="82.00">Jaehaerys I Targaryen</text>
<text x="126.00" y="262.00">Alyssa Targaryen</text>
<text x="974.00" y="442.00">Corlys Velaryon</text>
<text x="126.00" y="442.00">Aemma Arryn</text>
<text x="762.00" y="442.00">Alicent Hightower</text>
<text x="338.00" y="262.00">Aemon Targaryen</text>
<text x="550.00" y="262.00">Baelon Targaryen</text>
<text x="1186.00" y="442.00">Rhaenys Targaryen</text>
<text x="338.00" y="442.00">Viserys I Targaryen</text>
<text x="550.00" y="442.00">Daemon Targaryen</text>
<text x="338.00" y="622.00">Laena Velaryon</text>
<text x="550.00" y="622.00">Laenor Velaryon</text>
<text x="126.00" y="802.00">Larra Rogare</text>
<text x="1186.00" y="802.00">Joffrey Velaryon</text>
<text x="338.00" y="802.00">Aegon III Targaryen</text>
<text x="550.00" y="802.00">Viserys II Targaryen</text>
<text x="126.00" y="622.00">Rhaenyra Targaryen</text>
<text x="762.00" y="622.00">Aegon II Targaryen</text>
<text x="974.00" y="622.00">Helaena Targaryen</text>
<text x="1186.00" y="622.00">Aemond Targaryen</text>
<text x="1398.00" y="622.00">Daeron Targaryen</text>
<text x="1398.00" y="802.00">Baela Targaryen</text>
<text x="1610.00" y="802.00">Rhaena Targaryen</text>
<text x="762.00" y="802.00">Jacaerys Velaryon</text>
<text x="974.00" y="802.00">Lucerys Velaryon</text>
<text x="1822.00" y="802.00">Jaehaerys Targaryen</text>
<text x="2034.00" y="802.00">Jaehaera Targaryen</text>
<text x="2246.00" y="802.00">Maelor Targaryen</text>
<text x="126.00" y="982.00">Aegon IV Targaryen</text>
<text x="338.00" y="982.00">Naerys Targaryen</text>
<text x="126.00" y="1522.00">Betha Blackwood</text>
<text x="126.00" y="1342.00">Dyanna Dayne</text>
<text x="1186.00" y="1342.00">Jena Dondarrion</text>
<text x="126.00" y="1162.00">Myriah Martell</text>
<text x="338.00" y="1162.00">Daeron II Targaryen</text>
<text x="338.00" y="1342.00">Baelor Targaryen</text>
<text x="550.00" y="1342.00">Aerys I Targaryen</text>
<text x="762.00" y="1342.00">Rhaegel Targaryen</text>
<text x="974.00" y="1342.00">Maekar I Targaryen</text>
<text x="338.00" y="1522.00">Daeron Targaryen</text>
<text x="550.00" y="1522.00">Aerion Targaryen</text>
<text x="762.00" y="1522.00">Aemon Targaryen</text>
<text x="1186.00" y="1522.00">Aegon V Targaryen</text>
<text x="974.00" y="1522.00">Daella Targaryen</text>
<text x="1398.00" y="1522.00">Rhae Targaryen</text>
<text x="1610.00" y="1522.00">Valarr Targaryen</text>
<text x="1822.00" y="1522.00">Matarys Targaryen</text>
<text x="126.00" y="1702.00">Duncan Targaryen</text>
<text x="338.00" y="1702.00">Jaehaerys II Targaryen</text>
<text x="550.00" y="1702.00">Shaera Targaryen</text>
<text x="762.00" y="1702.00">Daeron Targaryen</text>
<text x="974.00" y="1702.00">Rhaelle Targaryen</text>
<text x="974.00" y="2062.00">Elia Martell</text>
<text x="126.00" y="2062.00">Lyanna Stark</text>
<text x="126.00" y="1882.00">Aerys II Targaryen</text>
<text x="338.00" y="1882.00">Rhaella Targaryen</text>
<text x="338.00" y="2062.00">Rhaegar Targaryen</text>
<text x="550.00" y="2062.00">Viserys Targaryen</text>
<text x="762.00" y="2062.00">Daenerys Targaryen</text>
<text x="338.00" y="2242.00">Rhaenys Targaryen</text>
<text x="550.00" y="2242.00">Aegon Targaryen</text>
<text x="126.00" y="2242.00">Jon Snow</text>
</g>
</svg>